<svg width="48" height="48" viewBox="0 0 48 48" fill="none" xmlns="http://www.w3.org/2000/svg">
<rect width="48" height="48" rx="12" fill="#009B3A"/>
<path fill-rule="evenodd" clip-rule="evenodd" d="M24.5424 22.6891L27.2568 22.2099L27.2604 22.2104C28.5496 21.9605 29.8338 22.6631 30.2955 23.871C30.8023 25.0637 30.3522 26.4411 29.2332 27.1218L25.2491 29.6544C24.7914 29.9489 24.2565 30.1066 23.7093 30.1083C23.2342 30.1069 22.7671 29.9886 22.3506 29.7642C21.4308 29.2828 20.8595 28.3397 20.8679 27.3164V21.0777C20.8715 20.6516 20.6337 20.2588 20.2508 20.0581C19.8712 19.8517 19.4062 19.8693 19.0439 20.1038L9.02401 26.4772C8.57315 26.7409 8.39275 27.2928 8.60314 27.7649C8.77761 28.2507 9.29341 28.5328 9.80605 28.4229L18.5572 26.8784C19.0073 26.7993 19.4375 27.0931 19.5183 27.5349C19.599 27.9768 19.2996 28.3991 18.8496 28.4785L10.0984 30.0229C8.80912 30.273 7.52485 29.5703 7.06334 28.3623C6.55841 27.1704 7.00697 25.7949 8.12309 25.1125L18.1434 18.7397C19.0135 18.1763 20.1304 18.1342 21.042 18.6304C21.9618 19.1117 22.5331 20.0549 22.5246 21.0782V27.3149C22.5206 27.741 22.7585 28.1339 23.1417 28.334C23.5214 28.5403 23.9864 28.5227 24.3487 28.2883L28.3328 25.7556C28.7832 25.4918 28.9631 24.9401 28.7526 24.4684C28.5781 23.9823 28.0621 23.7 27.5492 23.8099L24.8348 24.2892C24.3848 24.3683 23.9545 24.0745 23.8737 23.6327C23.793 23.1908 24.0924 22.7685 24.5424 22.6891ZM37.96 22.2074C39.2258 21.9568 40.4868 22.6599 40.9395 23.8687V23.8682C41.4365 25.0605 40.9967 26.4376 39.9006 27.1207L35.9891 29.6543C35.5398 29.9489 35.0147 30.1067 34.4775 30.1084C34.011 30.107 33.5522 29.9887 33.1432 29.7641C32.2392 29.2833 31.6772 28.3397 31.6848 27.3154V19.099C31.6848 18.6498 32.0487 18.2857 32.4977 18.2857C32.7135 18.2855 32.9205 18.371 33.0733 18.5235C33.226 18.6761 33.3119 18.8831 33.312 19.099V27.3154C33.309 27.7416 33.5434 28.134 33.9198 28.3333C34.2925 28.5398 34.749 28.5222 35.1047 28.2876L39.0162 25.754C39.4582 25.4899 39.6346 24.938 39.4279 24.4663C39.2566 23.9803 38.7503 23.698 38.247 23.8081L35.5824 24.2875C35.1406 24.3667 34.7182 24.0727 34.6389 23.6307C34.5597 23.1887 34.8536 22.7662 35.2954 22.6868L37.96 22.2074Z" fill="white"/>
</svg>
