<svg width="48" height="48" viewBox="0 0 48 48" fill="none" xmlns="http://www.w3.org/2000/svg">
<rect width="48" height="48" rx="12" fill="#FCF050"/>
<path d="M18.2633 18V30H16.6718L10.8381 21.1992H10.7316V30H9V18H10.6027L16.4421 26.8125H16.5485V18H18.2633Z" fill="#101828"/>
<path d="M24.5047 30H20.7893V18H24.6224C25.747 18 26.7127 18.2402 27.5197 18.7207C28.3266 19.1973 28.945 19.8828 29.3746 20.7773C29.808 21.668 30.0246 22.7363 30.0246 23.9824C30.0246 25.2324 29.8061 26.3066 29.369 27.2051C28.9356 28.1035 28.308 28.7949 27.4861 29.2793C26.6641 29.7598 25.6704 30 24.5047 30ZM22.5209 28.418H24.4095C25.2837 28.418 26.0103 28.2461 26.5894 27.9023C27.1685 27.5547 27.6019 27.0527 27.8895 26.3965C28.1772 25.7363 28.321 24.9316 28.321 23.9824C28.321 23.041 28.1772 22.2422 27.8895 21.5859C27.6056 20.9297 27.1816 20.4316 26.6174 20.0918C26.0533 19.752 25.3528 19.582 24.516 19.582H22.5209V28.418Z" fill="#101828"/>
<path d="M32.5772 30H30.7392L34.8693 18H36.8699L41 30H39.1619L35.9172 20.1797H35.8275L32.5772 30ZM32.8855 25.3008H38.8481V26.8242H32.8855V25.3008Z" fill="#101828"/>
</svg>
